HIERARCHY
ROOT RootJoint
{
    OFFSET   0.000000   0.000000   0.000000
    CHANNELS 6 Xposition Yposition Zposition Xrotation Yrotation Zrotation
    JOINT pelvis_lowerback
    {
        OFFSET   0.000000   0.093605   0.000000
        CHANNELS 3 Xrotation Yrotation Zrotation
        JOINT lowerback_torso
        {
            OFFSET   0.000000   0.100000   0.000000
            CHANNELS 3 Xrotation Yrotation Zrotation
            JOINT torso_head
            {
                OFFSET   0.000000   0.282350   0.000000
                CHANNELS 3 Xrotation Yrotation Zrotation
                End Site
                {
                    OFFSET   0.000000   0.192650   0.000000
                }
            }
            JOINT rTorso_Clavicle
            {
                OFFSET  -0.001000   0.157500   0.000000
                CHANNELS 3 Xrotation Yrotation Zrotation
                JOINT rShoulder
                {
                    OFFSET  -0.117647   0.000000   0.000000
                    CHANNELS 3 Xrotation Yrotation Zrotation
                    JOINT rElbow
                    {
                        OFFSET  -0.245000   0.000000   0.000000
                        CHANNELS 3 Xrotation Yrotation Zrotation
                        JOINT rWrist
                        {
                            OFFSET  -0.240000   0.000000   0.000000
                            CHANNELS 3 Xrotation Yrotation Zrotation
                            End Site
                            {
                                OFFSET  -0.116353  -0.002500   0.000000
                            }
                        }
                    }
                }
            }
            JOINT lTorso_Clavicle
            {
                OFFSET   0.001000   0.157500   0.000000
                CHANNELS 3 Xrotation Yrotation Zrotation
                JOINT lShoulder
                {
                    OFFSET   0.117647   0.000000   0.000000
                    CHANNELS 3 Xrotation Yrotation Zrotation
                    JOINT lElbow
                    {
                        OFFSET   0.245000   0.000000   0.000000
                        CHANNELS 3 Xrotation Yrotation Zrotation
                        JOINT lWrist
                        {
                            OFFSET   0.240000   0.000000   0.000000
                            CHANNELS 3 Xrotation Yrotation Zrotation
                            End Site
                            {
                                OFFSET   0.116353  -0.002500   0.000000
                            }
                        }
                    }
                }
            }
        }
    }
    JOINT rHip
    {
        OFFSET  -0.100000  -0.051395   0.000000
        CHANNELS 3 Xrotation Yrotation Zrotation
        JOINT rKnee
        {
            OFFSET   0.000000  -0.410000   0.000000
            CHANNELS 3 Xrotation Yrotation Zrotation
            JOINT rAnkle
            {
                OFFSET   0.000000  -0.390000   0.000000
                CHANNELS 3 Xrotation Yrotation Zrotation
                JOINT rToeJoint
                {
                    OFFSET   0.000000  -0.050000   0.130000
                    CHANNELS 3 Xrotation Yrotation Zrotation
                    End Site
                    {
                        OFFSET  -0.010000   0.002000   0.060000
                    }
                }
            }
        }
    }
    JOINT lHip
    {
        OFFSET   0.100000  -0.051395   0.000000
        CHANNELS 3 Xrotation Yrotation Zrotation
        JOINT lKnee
        {
            OFFSET   0.000000  -0.410000   0.000000
            CHANNELS 3 Xrotation Yrotation Zrotation
            JOINT lAnkle
            {
                OFFSET   0.000000  -0.390000   0.000000
                CHANNELS 3 Xrotation Yrotation Zrotation
                JOINT lToeJoint
                {
                    OFFSET   0.000000  -0.050000   0.130000
                    CHANNELS 3 Xrotation Yrotation Zrotation
                    End Site
                    {
                        OFFSET   0.010000   0.002000   0.060000
                    }
                }
            }
        }
    }
}
MOTION
Frames: 11
Frame Time:   0.008333
 -2.120210   0.966608   4.857449  -3.161793  24.209305   3.258761  14.698354   4.656400   1.311253  10.279416   0.798204   4.261912   6.111398   2.476260  -1.265137   8.207995   7.729709  20.261356  10.181341  -4.341882  17.342927   0.000038  18.577243  -0.000335  16.477128  -3.020914 -47.169404   5.469300  -5.445838 -16.095883  10.942373   5.720229  -1.616474   0.000538 -39.739581   0.000518  14.143514  -0.031625  45.468788   1.334252   4.052196   4.063559   7.352805   0.000007  -0.000020  23.874277  -0.539236  -6.482362 -44.667107  -0.000001  -0.000011 -12.014249 -13.188077   2.014735  22.399771  -0.001846   0.000122 -10.078688  -0.610753  -0.104775  -6.901339   0.000033   0.000101
 -2.119855   0.966485   4.857854  -3.164940  24.132173   3.262713  14.620593   4.650439   1.312832  10.222376   0.791363   4.240820   6.129319   2.520356  -1.295282   8.257729   7.656199  20.159468  10.349123  -4.225990  17.426154   0.000025  18.495342  -0.000255  16.507649  -2.965340 -46.917694   5.350691  -5.447892 -16.023132  10.788737   5.536099  -1.563186   0.000679 -39.679862   0.000681  14.229668   0.023667  45.279485   1.381149   4.142037   4.048777   7.356593   0.000006  -0.000015  23.731085  -0.543620  -6.464791 -44.522139   0.000003  -0.000024 -12.056600 -12.987719   1.912425  21.980156  -0.002005  -0.000199  -9.847442  -0.446219  -0.089673  -6.910175   0.000020   0.000059
 -2.119540   0.966334   4.858233  -3.163690  24.060094   3.257818  14.545213   4.641195   1.317122  10.163098   0.778204   4.219204   6.146219   2.564614  -1.327210   8.304002   7.591065  20.060652  10.506447  -4.115445  17.501733   0.000021  18.419536  -0.000200  16.542918  -2.909684 -46.651198   5.229178  -5.470397 -15.947455  10.640073   5.348444  -1.502585   0.000757 -39.628448   0.000765  14.204220  -0.024733  45.138531   1.426630   4.223901   4.042607   7.353624   0.000004  -0.000012  23.578201  -0.551085  -6.447217 -44.358308   0.000009  -0.000047 -12.099169 -12.794702   1.823650  21.573427  -0.002089  -0.000455  -9.631502  -0.291199  -0.076090  -6.912756   0.000014   0.000041
 -2.119258   0.966168   4.858592  -3.159532  23.984970   3.245652  14.474190   4.627503   1.320357  10.104132   0.759579   4.198722   6.161552   2.606320  -1.357986   8.344444   7.534569  19.966197  10.651958  -4.008967  17.569130   0.000023  18.349895  -0.000166  16.577322  -2.856029 -46.393269   5.111207  -5.503536 -15.872593  10.499819   5.164669  -1.440898   0.000786 -39.583565   0.000792  14.183827  -0.065884  45.015804   1.468916   4.303722   4.043776   7.346442   0.000003  -0.000010  23.427387  -0.555017  -6.433487 -44.190284   0.000014  -0.000067 -12.140164 -12.614387   1.745341  21.190490  -0.002097  -0.000605  -9.430133  -0.146304  -0.063996  -6.915039   0.000010   0.000028
 -2.119000   0.965997   4.858934  -3.153018  23.904632   3.227959  14.407482   4.609669   1.321741  10.046925   0.736780   4.179036   6.175563   2.645238  -1.387082   8.380130   7.484742  19.876714  10.786691  -3.907156  17.629811   0.000025  18.285808  -0.000147  16.609999  -2.804869 -46.147981   4.998517  -5.542748 -15.800712  10.368423   4.987290  -1.380762   0.000781 -39.543689   0.000782  14.167469  -0.102654  44.902105   1.507672   4.382963   4.050227   7.336834   0.000002  -0.000008  23.281934  -0.554416  -6.423672 -44.023917   0.000019  -0.000083 -12.178313 -12.446409   1.674998  20.832558  -0.002051  -0.000664  -9.242241  -0.010987  -0.053240  -6.917163   0.000007   0.000019
 -2.118762   0.965824   4.859263  -3.144349  23.819307   3.205961  14.344839   4.588157   1.321248   9.992183   0.710560   4.159903   6.188401   2.681472  -1.414433   8.412291   7.439684  19.792537  10.911775  -3.810780  17.685105   0.000026  18.226532  -0.000138  16.640983  -2.756125 -45.914997   4.891712  -5.585398 -15.732842  10.245695   4.817430  -1.323415   0.000754 -39.507931   0.000747  14.154329  -0.136318  44.794094   1.542888   4.461804   4.060541   7.325581   0.000002  -0.000005  23.143035  -0.549390  -6.417367 -43.861795   0.000022  -0.000094 -12.213158 -12.289936   1.610945  20.498874  -0.001970  -0.000659  -9.066885   0.115340  -0.043678  -6.919151   0.000004   0.000012
 -2.118539   0.965652   4.859579  -3.133608  23.729902   3.180514  14.286076   4.563451   1.319037   9.940306   0.681458   4.141232   6.200173   2.715190  -1.440085   8.441882   7.397971  19.713764  11.028192  -3.720331  17.736021   0.000026  18.171426  -0.000134  16.670450  -2.709616 -45.693258   4.790965  -5.629792 -15.669370  10.131248   4.655612  -1.269401   0.000712 -39.475663   0.000699  14.143756  -0.167567  44.690394   1.574605   4.540043   4.073764   7.313102   0.000001  -0.000002  23.011072  -0.540402  -6.414081 -43.705139   0.000024  -0.000101 -12.244594 -12.144132   1.552094  20.188173  -0.001866  -0.000611  -8.903213   0.233257  -0.035176  -6.921022   0.000002   0.000006
 -2.118379   0.965493   4.859856  -3.099336  23.681911   3.148804  14.197313   4.554729   1.319551   9.891778   0.652015   4.126440   6.226566   2.786385  -1.485298   8.500229   7.341845  19.599306  11.249425  -3.598685  17.827540   0.000015  18.137690  -0.000075  16.715845  -2.660619 -45.418172   4.631219  -5.716720 -15.597626   9.915057   4.400562  -1.193293   0.001177 -39.343387   0.001206  14.134657  -0.217735  44.506180   1.606761   4.661085   4.088501   7.241245  -0.000002  -0.000043  22.899956  -0.586125  -6.384349 -43.532195   0.000018  -0.000081 -12.305742 -11.915911   1.501966  19.837666  -0.001886  -0.000955  -8.676270   0.411224  -0.037886  -6.954446  -0.000018  -0.000099
 -2.118260   0.965336   4.860096  -3.060905  23.649729   3.117035  14.113716   4.541632   1.316750   9.839201   0.613272   4.111089   6.251203   2.856409  -1.530755   8.554352   7.294389  19.486467  11.456758  -3.481135  17.910247   0.000012  18.108655  -0.000034  16.765802  -2.611129 -45.128998   4.468031  -5.825396 -15.515838   9.706232   4.143459  -1.106039   0.001502 -39.222467   0.001534  14.127271  -0.260254  44.349463   1.638097   4.773723   4.102831   7.156690  -0.000005  -0.000089  22.794740  -0.632902  -6.355484 -43.354509   0.000012  -0.000056 -12.377695 -11.695405   1.452647  19.496842  -0.001876  -0.001247  -8.464446   0.578947  -0.040939  -6.981647  -0.000029  -0.000163
 -2.118166   0.965180   4.860316  -3.021585  23.615036   3.084369  14.036292   4.525302   1.310356   9.786526   0.570371   4.094965   6.274031   2.922276  -1.574772   8.601454   7.255681  19.376410  11.648541  -3.367275  17.982397   0.000012  18.083156  -0.000008  16.814013  -2.563666 -44.851699   4.310427  -5.941384 -15.430522   9.509450   3.893477  -1.016381   0.001694 -39.113022   0.001708  14.121272  -0.297283  44.212221   1.666768   4.879815   4.118397   7.071552  -0.000006  -0.000119  22.695051  -0.676985  -6.329715 -43.181090   0.000009  -0.000043 -12.450393 -11.488533   1.406885  19.174226  -0.001822  -0.001416  -8.267038   0.735690  -0.044420  -7.007324  -0.000037  -0.000204
 -2.118086   0.965028   4.860525  -2.982384  23.574187   3.050685  13.964119   4.505885   1.301553   9.735191   0.525373   4.078363   6.295280   2.983768  -1.616647   8.642929   7.223241  19.269988  11.826140  -3.258196  18.045622   0.000013  18.060486   0.000006  16.859564  -2.518833 -44.590595   4.160589  -6.058675 -15.345975   9.325120   3.653932  -0.928434   0.001785 -39.013045   0.001774  14.116367  -0.330748  44.087218   1.692941   4.982867   4.135112   6.988331  -0.000006  -0.000135  22.600981  -0.715095  -6.308125 -43.013945   0.000007  -0.000034 -12.520396 -11.295539   1.365115  18.871778  -0.001738  -0.001479  -8.082887   0.882004  -0.048246  -7.031257  -0.000042  -0.000225
